Coordinates
version=1
nRows=10
nColumns=22
inDegrees=yes

Units are S.I. units (second, meters, Newtons, ...)
If the header above contains a line with 'inDegrees', this indicates whether rotational values are in degrees (yes) or radians (no).

endheader
time	pelvis_tilt	pelvis_list	pelvis_rotation	pelvis_tx	pelvis_ty	pelvis_tz	hip_flexion_r	hip_adduction_r	hip_rotation_r	knee_angle_r	ankle_angle_r	subtalar_angle_r	hip_flexion_l	hip_adduction_l	hip_rotation_l	knee_angle_l	ankle_angle_l	subtalar_angle_l	lumbar_extension	lumbar_bending	lumbar_rotation
      0.01000000	    -10.08994540	      0.94481320	    -12.90952834	     -0.94126607	      0.97626250	      0.15281625	     23.67050279	      1.67338426	      3.34782335	    -27.15208343	     18.09272780	     -4.01177769	     21.33769515	      1.02824576	     -5.73180405	    -24.32323986	     19.63262368	     -3.86342944	      1.46717083	      0.99201515	      4.47749238
      0.02000000	    -10.09504504	      0.91822354	    -12.89960443	     -0.94133306	      0.97625203	      0.15276742	     23.66988148	      1.69880067	      3.34835897	    -27.14655193	     18.08365666	     -3.96761643	     21.36101753	      1.00010050	     -5.73420912	    -24.36021113	     19.62794927	     -3.89425749	      1.45598469	      1.02517967	      4.46765703
      0.03000000	    -10.09740325	      0.91778787	    -12.89925118	     -0.94138615	      0.97624671	      0.15273061	     23.67453373	      1.69828239	      3.34737285	    -27.14217510	     18.08379030	     -3.96548410	     21.36455061	      1.00036277	     -5.73410337	    -24.35436589	     19.62966696	     -3.89554833	      1.45062689	      1.02611706	      4.46879309
      0.04000000	    -10.09967151	      0.91719000	    -12.89729576	     -0.94143209	      0.97624333	      0.15268431	     23.67848901	      1.69705179	      3.34744335	    -27.13937955	     18.08339984	     -3.96292126	     21.36832250	      1.00188943	     -5.73392910	    -24.34982260	     19.63096183	     -3.89713997	      1.44686316	      1.02815692	      4.47139197
      0.05000000	    -10.10210413	      0.91683852	    -12.89597484	     -0.94147880	      0.97623944	      0.15263857	     23.68285573	      1.69529073	      3.34774996	    -27.13639324	     18.08281505	     -3.96052545	     21.37219848	      1.00311781	     -5.73354295	    -24.34572707	     19.63159288	     -3.89863687	      1.44257113	      1.02958006	      4.47442712
      0.06000000	    -10.12540824	      0.93016121	    -12.90423831	     -0.94153922	      0.97620098	      0.15260927	     23.71918875	      1.68949415	      3.36138128	    -27.14447602	     18.07193062	     -3.90427508	     21.39485640	      1.01386515	     -5.72324458	    -24.32962699	     19.62469088	     -3.93649631	      1.46669387	      1.01840679	      4.49217425
      0.07000000	    -10.12683097	      0.92982144	    -12.90083345	     -0.94157769	      0.97620009	      0.15255634	     23.72173006	      1.68646222	      3.36212358	    -27.14151612	     18.07292408	     -3.90342839	     21.39796688	      1.01641516	     -5.72489962	    -24.32739469	     19.62454537	     -3.93717869	      1.46183740	      1.02180130	      4.49483951
      0.08000000	    -10.12856360	      0.92988154	    -12.89991130	     -0.94161777	      0.97619979	      0.15251682	     23.72471807	      1.68473913	      3.36257176	    -27.13829579	     18.07357098	     -3.90236448	     21.40091586	      1.01833371	     -5.72484082	    -24.32401014	     19.62390618	     -3.93793501	      1.45659784	      1.02196184	      4.49774965
      0.09000000	    -10.13097198	      0.93838221	    -12.90281300	     -0.94164986	      0.97619982	      0.15248267	     23.73120242	      1.67651769	      3.37152510	    -27.13678104	     18.07321410	     -3.89245849	     21.39950030	      1.03137141	     -5.71235537	    -24.30993555	     19.61398737	     -3.94474218	      1.45649390	      1.01191436	      4.51945137
      0.10000000	    -10.13245780	      0.93831237	    -12.90238343	     -0.94168432	      0.97620016	      0.15245183	     23.73463446	      1.67585547	      3.37255093	    -27.13547926	     18.07330326	     -3.89173407	     21.40139295	      1.03289650	     -5.71345887	    -24.30615063	     19.61361141	     -3.94537236	      1.45096258	      1.01151627	      4.51929532
